<svg width="16" height="16" viewBox="0 0 16 16" fill="none" xmlns="http://www.w3.org/2000/svg">
<path d="M8.17599 9.13183L11.833 5.47483C11.8995 5.40174 11.9801 5.34275 12.0699 5.30134C12.1596 5.25994 12.2568 5.23697 12.3556 5.23378C12.4544 5.2306 12.5528 5.24727 12.6451 5.2828C12.7373 5.31834 12.8215 5.37202 12.8926 5.44067C12.9637 5.50932 13.0203 5.59155 13.0591 5.68247C13.0979 5.7734 13.1181 5.87118 13.1184 5.97003C13.1187 6.06888 13.0992 6.16679 13.061 6.25797C13.0228 6.34914 12.9667 6.43172 12.896 6.50083L12.878 6.51883L8.69899 10.6988C8.5604 10.8374 8.37246 10.9152 8.17649 10.9152C7.98052 10.9152 7.79257 10.8374 7.65399 10.6988L3.47499 6.51983C3.40519 6.45239 3.34936 6.37187 3.31068 6.28286C3.272 6.19385 3.25123 6.09809 3.24956 6.00105C3.24789 5.90402 3.26535 5.8076 3.30094 5.71731C3.33653 5.62702 3.38955 5.54462 3.45699 5.47483C3.52442 5.40503 3.60494 5.3492 3.69395 5.31052C3.78296 5.27184 3.87872 5.25107 3.97576 5.2494C4.0728 5.24773 4.16921 5.26519 4.2595 5.30078C4.34979 5.33637 4.43219 5.38939 4.50199 5.45683L4.51999 5.47483L8.17599 9.13183Z" fill="#200E32" stroke="#200E32" stroke-width="0.5"/>
</svg>
